<svg width="40" height="40" viewBox="0 0 40 40" fill="none" xmlns="http://www.w3.org/2000/svg">
<path d="M5.48593 30.4867C1.30221 26.303 0.145725 20.2212 2.01647 14.9888C2.39487 13.9296 2.89713 12.9046 3.52401 11.9373C4.08098 11.0794 4.73445 10.2664 5.48593 9.5149C6.23742 8.76341 6.99955 8.15021 7.82855 7.6054L14.2386 14.0155C13.2584 14.2966 12.3352 14.8232 11.5647 15.5937C10.7942 16.3642 10.2312 17.3527 9.95688 18.3702C9.39611 20.4537 9.86722 22.8396 11.5001 24.4725L20.9838 33.9562C15.7515 35.8269 9.66965 34.6704 5.48593 30.4867Z" fill="#9FE870"/>
<path d="M24.0351 32.4486L17.6022 26.0157C18.6196 25.7414 19.5816 25.2049 20.3787 24.4078C21.1758 23.6108 21.6757 22.7141 21.9569 21.7339C22.5511 19.6717 22.0617 17.3618 20.4904 15.7084C20.4531 15.6711 20.4167 15.6316 20.3787 15.5936C20.3407 15.5556 20.3019 15.5184 20.2632 15.4812L10.8623 6.08032C16.1167 4.16019 22.2479 5.30528 26.4575 9.51483C30.667 13.7244 31.8113 19.8548 29.892 25.1099C29.5067 26.1639 28.9984 27.1828 28.367 28.144C27.8222 28.973 27.1854 29.7587 26.4575 30.4866C25.7295 31.2146 24.8929 31.8916 24.0351 32.4486Z" fill="#9FE870"/>
</svg>
